<svg width="78" height="78" viewBox="0 0 78 78" fill="none" xmlns="http://www.w3.org/2000/svg">
<path d="M73.125 39C73.1327 39.9998 72.8288 40.9771 72.2554 41.7962C71.6821 42.6153 70.8678 43.2354 69.9258 43.5703L50.5964 50.5994L43.5703 69.9258C43.224 70.8587 42.6005 71.6634 41.7835 72.2316C40.9665 72.7998 39.9951 73.1043 39 73.1043C38.0048 73.1043 37.0335 72.7998 36.2165 72.2316C35.3995 71.6634 34.776 70.8587 34.4297 69.9258L27.4036 50.5964L8.0742 43.5703C7.14124 43.224 6.33661 42.6005 5.7684 41.7835C5.20019 40.9665 4.89563 39.9951 4.89563 39C4.89563 38.0048 5.20019 37.0335 5.7684 36.2165C6.33661 35.3995 7.14124 34.776 8.0742 34.4297L27.4036 27.4036L34.4297 8.0742C34.776 7.14124 35.3995 6.33661 36.2165 5.7684C37.0335 5.20019 38.0048 4.89563 39 4.89563C39.9951 4.89563 40.9665 5.20019 41.7835 5.7684C42.6005 6.33661 43.224 7.14124 43.5703 8.0742L50.5994 27.4036L69.9258 34.4297C70.8678 34.7646 71.6821 35.3847 72.2554 36.2038C72.8288 37.0228 73.1327 38.0002 73.125 39Z" fill="white"/>
<path d="M67.9801 64.6106C67.8327 64.8009 67.6296 64.9404 67.3992 65.0099C67.1688 65.0794 66.9224 65.0754 66.6944 64.9985L61.9929 63.4491L57.7853 66.0575C57.5809 66.1823 57.3431 66.2416 57.104 66.2274C56.8649 66.2132 56.6359 66.1261 56.4477 65.9779C56.2596 65.8297 56.1213 65.6275 56.0515 65.3984C55.9817 65.1692 55.9837 64.9242 56.0572 64.6962L57.6085 59.9945L55.0009 55.7871C54.8761 55.5827 54.8169 55.3449 54.8312 55.1058C54.8454 54.8667 54.9326 54.6376 55.0808 54.4494C55.2291 54.2612 55.4314 54.1229 55.6605 54.053C55.8896 53.9832 56.1347 53.9851 56.3626 54.0585L61.0637 55.6085L65.2717 52.9995C65.4762 52.8747 65.714 52.8154 65.9531 52.8296C66.1922 52.8438 66.4212 52.9309 66.6093 53.0791C66.7975 53.2273 66.9357 53.4295 67.0055 53.6586C67.0754 53.8878 67.0734 54.1328 66.9998 54.3608L65.4491 59.063L68.0562 63.2699C68.1844 63.4735 68.2459 63.7121 68.2323 63.9524C68.2187 64.1926 68.1305 64.4227 67.9801 64.6106Z" fill="url(#paint0_linear_2156_11445)"/>
<path d="M22.9801 24.6106C22.8327 24.8009 22.6296 24.9404 22.3992 25.0099C22.1688 25.0794 21.9224 25.0754 21.6944 24.9985L16.9929 23.4491L12.7853 26.0575C12.5809 26.1823 12.3431 26.2416 12.104 26.2274C11.8649 26.2132 11.6359 26.1261 11.4477 25.9779C11.2596 25.8297 11.1213 25.6275 11.0515 25.3984C10.9817 25.1692 10.9837 24.9242 11.0572 24.6962L12.6085 19.9945L10.0009 15.7871C9.87609 15.5827 9.81686 15.3449 9.83115 15.1058C9.84544 14.8667 9.93257 14.6376 10.0808 14.4494C10.2291 14.2612 10.4314 14.1229 10.6605 14.053C10.8896 13.9832 11.1347 13.9851 11.3626 14.0585L16.0637 15.6085L20.2717 12.9995C20.4762 12.8747 20.714 12.8154 20.9531 12.8296C21.1922 12.8438 21.4212 12.9309 21.6093 13.0791C21.7975 13.2273 21.9357 13.4295 22.0055 13.6586C22.0754 13.8878 22.0734 14.1328 21.9998 14.3608L20.4491 19.063L23.0562 23.2699C23.1844 23.4735 23.2459 23.7121 23.2323 23.9524C23.2187 24.1926 23.1305 24.4227 22.9801 24.6106Z" fill="url(#paint1_linear_2156_11445)"/>
<defs>
<linearGradient id="paint0_linear_2156_11445" x1="55.0808" y1="54.4494" x2="67.9798" y2="64.6111" gradientUnits="userSpaceOnUse">
<stop stop-color="#EAB308"/>
<stop offset="1" stop-color="#F97316"/>
</linearGradient>
<linearGradient id="paint1_linear_2156_11445" x1="10.0808" y1="14.4494" x2="22.9798" y2="24.6111" gradientUnits="userSpaceOnUse">
<stop stop-color="#EAB308"/>
<stop offset="1" stop-color="#F97316"/>
</linearGradient>
</defs>
</svg>
